<?xml version="1.0" encoding="utf-8"?>
<!-- Generator: Adobe Illustrator 27.0.0, SVG Export Plug-In . SVG Version: 6.00 Build 0)  -->
<svg version="1.1" id="Layer_1" xmlns="http://www.w3.org/2000/svg" xmlns:xlink="http://www.w3.org/1999/xlink" x="0px" y="0px"
	 viewBox="0 0 84.4 59.9" style="enable-background:new 0 0 84.4 59.9;" xml:space="preserve">
<style type="text/css">
	.st0{fill:#FFFFFF;}
</style>
<g>
	<g>
		<g>
			<path class="st0" d="M0.7,30L29.1,1.5c0.2-0.2,0.4-0.4,0.6-0.5L30,0.8l0.3,0.3c1.5,1.5,3,3,4.5,4.5l3,3l-0.3,0.4
				c-0.8,0.8-1.5,1.6-2.3,2.3c-0.6,0.6-2.1,2.1-2.1,2.1L32.7,13c-0.6-0.6-1.2-1.2-1.8-1.7c-0.3-0.3-0.6-0.6-1-1L10.3,30
				c0,0,16.1,16.1,19.7,19.7l2.2-2.2c1.8-1.8,3.5-3.5,5.2-5.2l-0.8-0.8c-3.7-3.7-7.4-7.3-11.1-11L25.2,30l0.4-0.4
				c1.4-1.4,2.7-2.7,4.1-4.1l0.4-0.4l0.4,0.4c5.4,5.4,10.9,10.9,16.3,16.3l0.3,0.3l-17,17L0.7,30z"/>
			<path class="st0" d="M30,1.4c2.4,2.4,4.7,4.7,7.1,7.1c-1.3,1.4-2.7,2.7-4.1,4.1c-1-1-2-2-3.1-3.1c-6.8,6.8-13.6,13.6-20.4,20.4
				c6.8,6.8,13.6,13.6,20.4,20.4c2.7-2.7,5.5-5.5,8.2-8.2C34.1,38.1,30,34,25.9,29.9c1.4-1.4,2.7-2.7,4.1-4.1
				c5.4,5.4,10.9,10.9,16.3,16.3C40.8,47.6,35.4,53,29.9,58.5c-9.5-9.5-19-19-28.5-28.5C10.7,20.6,20,11.3,29.4,2
				C29.6,1.8,29.8,1.6,30,1.4 M30.1,0.1l-0.7,0.5c-0.3,0.2-0.5,0.4-0.6,0.6l-0.1,0.1l-8,8c-6.6,6.7-13.3,13.3-20,20L0,30l0.7,0.7
				c9.5,9.5,19,19,28.5,28.5l0.7,0.7l0.7-0.7c3-3,6-6,9.1-9.1c2.4-2.4,4.8-4.8,7.2-7.2l0.7-0.7L47,41.5C41.5,36,36.1,30.6,30.7,25.2
				L30,24.5l-0.7,0.7c-1.4,1.4-2.7,2.7-4.1,4.1L24.5,30l0.7,0.7c3.8,3.8,7.6,7.5,11.4,11.3l0.2,0.2c-1.6,1.6-3.2,3.2-4.9,4.9
				l-1.9,1.9c-3.4-3.4-6.8-6.8-10.2-10.2c-2.9-2.9-5.8-5.8-8.8-8.8c4.9-4.9,9.7-9.7,14.6-14.6l4.4-4.4c0.2,0.2,0.4,0.4,0.6,0.6
				c0.6,0.6,1.2,1.2,1.8,1.8L33,14l0.7-0.7c0.6-0.6,1.2-1.2,1.8-1.8c0.8-0.8,1.5-1.6,2.3-2.3l0.7-0.7l-0.7-0.7
				C36.9,7,36,6.1,35.2,5.2c-1.5-1.5-3-3-4.5-4.5L30.1,0.1L30.1,0.1z"/>
		</g>
		<g>
			<path class="st0" d="M54.1,58.8c-1.2-1.2-2.5-2.5-3.7-3.7c-1.1-1.1-2.3-2.3-3.4-3.4l-0.4-0.3l1.2-1.2c1.1-1.1,2.1-2.1,3.2-3.2
				l0.3-0.3l0.3,0.3c0.9,0.8,1.7,1.7,2.6,2.6l0.1,0.1C61,43.1,67.5,36.5,74.1,30C67.5,23.4,61,16.8,54.4,10.3c0,0-6.2,6.2-7.5,7.5
				c1.8,1.8,3.7,3.6,5.5,5.4c2.2,2.1,4.3,4.3,6.4,6.4l0.3,0.4l-0.3,0.4c-0.8,0.8-1.6,1.6-2.4,2.4l-2,2l-17-17l0.3-0.4
				c5.4-5.4,10.9-10.9,16.3-16.3l0.3-0.4l0.3,0.4C63.4,9.7,72,18.3,80.6,26.9l3.1,3.1L54.4,59.2L54.1,58.8z"/>
			<path class="st0" d="M54.4,1.4c9.5,9.5,19,19,28.5,28.5c-9.5,9.5-19,19-28.5,28.5c-2.4-2.4-4.8-4.8-7.1-7.1
				c1.4-1.4,2.7-2.7,4.1-4.1c1,1,2,2,3,3C61.2,43.5,68,36.8,74.8,30C68,23.2,61.2,16.4,54.4,9.6c-2.7,2.7-5.5,5.5-8.2,8.2
				c4.1,4.1,8.2,8.1,12.3,12.2c-1.3,1.4-2.7,2.7-4.1,4.1C49,28.6,43.6,23.2,38.1,17.7C43.5,12.3,49,6.8,54.4,1.4 M54.4,0l-0.7,0.7
				C48.3,6.1,42.8,11.6,37.4,17l-0.7,0.7l0.7,0.7l10.9,10.9l5.4,5.4l0.7,0.7l0.7-0.7c0.5-0.6,1.1-1.1,1.7-1.7
				c0.8-0.8,1.6-1.6,2.4-2.4l0.7-0.7l-0.7-0.7c-2.2-2.1-4.3-4.3-6.5-6.4c-1.7-1.7-3.4-3.4-5.1-5c1.2-1.2,2.4-2.4,3.6-3.6
				c1.1-1.1,2.1-2.1,3.2-3.2c6.3,6.3,12.7,12.7,19,19c-6.3,6.3-12.7,12.7-19,19c-0.8-0.8-1.6-1.6-2.3-2.3l-0.7-0.7l-0.7,0.7
				c-1.1,1.1-2.2,2.1-3.2,3.2l-0.9,0.9l-0.7,0.7l0.7,0.7c1.1,1.1,2.3,2.3,3.4,3.4c1.2,1.2,2.5,2.5,3.7,3.7l0.7,0.7l0.7-0.7
				c9.5-9.5,19-19,28.5-28.5l0.7-0.7l-0.7-0.7l-4-4C71.5,17,63.3,8.9,55.1,0.7L54.4,0L54.4,0z"/>
		</g>
	</g>
</g>
</svg>
