<?xml version="1.0" encoding="utf-8"?>
<!-- Generator: Adobe Illustrator 27.0.0, SVG Export Plug-In . SVG Version: 6.00 Build 0)  -->
<svg version="1.1" id="Layer_1" xmlns="http://www.w3.org/2000/svg" xmlns:xlink="http://www.w3.org/1999/xlink" x="0px" y="0px"
	 viewBox="0 0 402.3 200" style="enable-background:new 0 0 402.3 200;" xml:space="preserve">
<style type="text/css">
	.st0{display:none;}
	.st1{fill:none;stroke:#005FD1;stroke-width:3;stroke-miterlimit:10;}
	.st2{fill:none;stroke:#1DA1F2;stroke-width:3;stroke-miterlimit:10;}
	.st3{fill:none;stroke:#71C9F8;stroke-width:3;stroke-miterlimit:10;}
	.st4{fill:none;stroke:#97E3FF;stroke-width:3;stroke-miterlimit:10;}
	.st5{fill:#1DA1F2;}
	.st6{fill:#97E3FF;}
	.st7{fill:#71C9F8;}
	.st8{fill:#005FD1;}
	.st9{display:inline;fill:#005FD1;}
	.st10{font-family:'HelveticaNeue-Bold';}
	.st11{font-size:11.5px;}
	.st12{display:inline;fill:#1DA1F2;}
</style>
<g id="guides" class="st0">
</g>
<g id="lines">
	<polyline class="st1" points="382.2,205.4 332.2,176.5 332.2,147.6 	"/>
	<polyline class="st1" points="357.2,104.3 357.2,133.2 407.2,162.1 	"/>
	<line class="st2" x1="307.2" y1="104.3" x2="257.2" y2="133.2"/>
	<line class="st1" x1="332.2" y1="205.4" x2="282.2" y2="176.5"/>
	<polyline class="st3" points="157.2,46.6 157.2,75.5 82.2,118.8 32.2,147.6 57.2,162.1 	"/>
	<polyline class="st2" points="82.2,176.5 82.2,147.6 182.2,89.9 182.2,147.6 	"/>
	<polyline class="st1" points="207.2,190.9 182.2,205.4 132.2,176.5 106.3,190.9 80.9,205.4 	"/>
	<polyline class="st1" points="32.2,205.4 157.2,133.2 157.2,162.1 232.2,205.4 	"/>
	<line class="st2" x1="307.2" y1="133.2" x2="307.2" y2="104.3"/>
	<polyline class="st2" points="257.2,162.1 207.2,133.2 207.2,75.5 182.2,89.9 	"/>
	<polyline class="st4" points="32.2,61 82.2,89.9 107.2,75.5 157.2,46.6 132.2,32.2 	"/>
	<line class="st3" x1="57.2" y1="104.3" x2="82.2" y2="118.8"/>
	<polyline class="st3" points="207.2,133.2 257.2,104.3 232.2,89.9 232.2,32.2 	"/>
	<polyline class="st1" points="407.2,162.1 382.2,176.5 332.2,147.6 257.2,190.9 	"/>
	<line class="st3" x1="282.2" y1="32.2" x2="307.2" y2="46.6"/>
	<polyline class="st4" points="232.2,32.2 182.2,61 182.2,32.2 157.2,17.7 107.2,46.6 82.2,32.2 	"/>
	<line class="st1" x1="257.2" y1="162.1" x2="257.2" y2="190.9"/>
	<line class="st1" x1="257.2" y1="190.9" x2="282.2" y2="205.4"/>
	<line class="st2" x1="257.2" y1="75.5" x2="307.2" y2="104.3"/>
	<line class="st3" x1="407.2" y1="46.6" x2="357.2" y2="17.7"/>
	<polyline class="st2" points="307.2,75.5 332.2,89.9 357.2,104.3 	"/>
	<line class="st3" x1="332.2" y1="32.2" x2="332.2" y2="89.9"/>
	<polyline class="st2" points="407.2,75.5 382.2,61 357.2,75.5 357.2,46.6 	"/>
	<polyline class="st1" points="382.2,61 382.2,118.8 407.2,133.2 	"/>
	<line class="st1" x1="257.2" y1="162.1" x2="357.2" y2="104.3"/>
	<line class="st3" x1="183.5" y1="61" x2="208.5" y2="75.5"/>
	<line class="st2" x1="57.2" y1="162.1" x2="57.2" y2="191.4"/>
	<polyline class="st3" points="332.2,32.2 357.2,46.6 382.2,32.2 	"/>
	<polyline class="st3" points="332.8,32.2 282.8,61 232.8,32.2 	"/>
	<line class="st1" x1="182.2" y1="147.6" x2="257.2" y2="190.9"/>
	<polyline class="st2" points="32.2,205.4 32.2,176.5 7.2,162.1 	"/>
</g>
<g id="circles">
	<circle class="st5" cx="32.2" cy="176.5" r="3.3"/>
	<circle class="st6" cx="132.2" cy="32.2" r="3.3"/>
	<circle class="st6" cx="107.2" cy="46.6" r="3.3"/>
	<circle class="st6" cx="82.2" cy="32.2" r="3.3"/>
	<circle class="st7" cx="232.2" cy="32.2" r="3.3"/>
	<circle class="st6" cx="182.2" cy="61" r="3.3"/>
	<circle class="st5" cx="182.2" cy="89.9" r="3.3"/>
	<circle class="st6" cx="157.2" cy="46.6" r="3.3"/>
	<circle class="st5" cx="207.2" cy="75.5" r="3.3"/>
	<circle class="st7" cx="82.2" cy="118.8" r="3.3"/>
	<circle class="st6" cx="32.2" cy="61" r="3.3"/>
	<circle class="st7" cx="57.2" cy="104.3" r="3.3"/>
	<circle class="st8" cx="82.2" cy="176.5" r="3.3"/>
	<circle class="st8" cx="57.2" cy="190.9" r="3.3"/>
	<circle class="st8" cx="207.2" cy="191.4" r="3.3"/>
	<ellipse transform="matrix(0.1602 -0.9871 0.9871 0.1602 84.521 365.7426)" class="st5" cx="257.2" cy="133.2" rx="3.3" ry="3.3"/>
	<ellipse transform="matrix(0.1602 -0.9871 0.9871 0.1602 141.476 317.2851)" class="st5" cx="257.2" cy="75.5" rx="3.3" ry="3.3"/>
	<circle class="st7" cx="282.2" cy="32.2" r="3.3"/>
	<circle class="st5" cx="307.2" cy="104.3" r="3.3"/>
	<circle class="st7" cx="307.2" cy="46.6" r="3.3"/>
	
		<ellipse transform="matrix(0.1602 -0.9871 0.9871 0.1602 27.5661 414.2001)" class="st8" cx="257.2" cy="190.9" rx="3.3" ry="3.3"/>
	<circle class="st5" cx="207.2" cy="133.2" r="3.3"/>
	
		<ellipse transform="matrix(0.1602 -0.9871 0.9871 0.1602 55.9942 390.0133)" class="st8" cx="257.2" cy="162.1" rx="3.3" ry="3.3"/>
	<circle class="st8" cx="282.2" cy="176.5" r="3.3"/>
	<circle class="st8" cx="307.2" cy="133.2" r="3.3"/>
	<circle class="st7" cx="32.2" cy="147.6" r="3.3"/>
	<circle class="st5" cx="82.2" cy="147.6" r="3.3"/>
	<circle class="st8" cx="132.2" cy="176.5" r="3.3"/>
	<circle class="st7" cx="232.2" cy="89.9" r="3.3"/>
	<circle class="st7" cx="157.2" cy="75.5" r="3.3"/>
	<circle class="st8" cx="182.2" cy="147.6" r="3.3"/>
	<circle class="st8" cx="157.2" cy="133.2" r="3.3"/>
	<circle class="st8" cx="157.2" cy="162.1" r="3.3"/>
	
		<ellipse transform="matrix(0.1602 -0.9871 0.9871 0.1602 113.0479 341.4719)" class="st7" cx="257.2" cy="104.3" rx="3.3" ry="3.3"/>
	<circle class="st7" cx="282.2" cy="61" r="3.3"/>
	<circle class="st6" cx="182.2" cy="32.2" r="3.3"/>
	<circle class="st6" cx="157.2" cy="17.7" r="3.3"/>
	<circle class="st6" cx="82.2" cy="89.9" r="3.3"/>
	<circle class="st5" cx="57.2" cy="162.1" r="3.3"/>
	<circle class="st8" cx="332.2" cy="147.6" r="3.3"/>
	<circle class="st8" cx="332.2" cy="177" r="3.3"/>
	<circle class="st8" cx="357.2" cy="104.3" r="3.3"/>
	<circle class="st5" cx="307.2" cy="75.5" r="3.3"/>
	<circle class="st8" cx="357.2" cy="133.2" r="3.3"/>
	<circle class="st5" cx="332.2" cy="89.9" r="3.3"/>
	<circle class="st7" cx="332.2" cy="32.2" r="3.3"/>
	<circle class="st7" cx="357.2" cy="17.7" r="3.3"/>
	<circle class="st7" cx="357.2" cy="46.6" r="3.3"/>
	<circle class="st7" cx="382.2" cy="32.2" r="3.3"/>
	<circle class="st5" cx="357.2" cy="75.5" r="3.3"/>
	<circle class="st5" cx="382.2" cy="61" r="3.3"/>
	<circle class="st8" cx="382.2" cy="118.8" r="3.3"/>
	<circle class="st8" cx="382.2" cy="176.5" r="3.3"/>
	<circle class="st5" cx="7.2" cy="162.1" r="3.3"/>
</g>
<g id="text" class="st0">
	<text transform="matrix(0.75 -0.433 0 1 90.5103 161.4787)" class="st9 st10 st11">2 public members</text>
	<text transform="matrix(0.75 -0.433 0 1 82.1908 108.8033)" class="st12 st10 st11">103 public repos</text>
</g>
</svg>
